<svg width="47" height="46" viewBox="0 0 47 46" fill="none" xmlns="http://www.w3.org/2000/svg">
<path d="M0.666687 23C0.666687 35.7025 10.9641 46 23.6667 46C36.3692 46 46.6667 35.7025 46.6667 23C46.6667 10.2975 36.3692 0 23.6667 0C10.9641 0 0.666687 10.2975 0.666687 23Z" fill="white"/>
<path d="M23.6667 13.2246C26.8292 13.2246 27.2604 13.2246 28.5542 13.2246C29.7042 13.2246 30.2792 13.5121 30.7104 13.6559C31.2854 13.9434 31.7167 14.0871 32.1479 14.5184C32.5792 14.9496 32.8667 15.3809 33.0104 15.9559C33.1542 16.3871 33.2979 16.9621 33.4417 18.1121C33.4417 19.4059 33.4417 19.6934 33.4417 22.9996C33.4417 26.3059 33.4417 26.5934 33.4417 27.8871C33.4417 29.0371 33.1542 29.6121 33.0104 30.0434C32.7229 30.6184 32.5792 31.0496 32.1479 31.4809C31.7167 31.9121 31.2854 32.1996 30.7104 32.3434C30.2792 32.4871 29.7042 32.6309 28.5542 32.7746C27.2604 32.7746 26.9729 32.7746 23.6667 32.7746C20.3604 32.7746 20.0729 32.7746 18.7792 32.7746C17.6292 32.7746 17.0542 32.4871 16.6229 32.3434C16.0479 32.0559 15.6167 31.9121 15.1854 31.4809C14.7542 31.0496 14.4667 30.6184 14.3229 30.0434C14.1792 29.6121 14.0354 29.0371 13.8917 27.8871C13.8917 26.5934 13.8917 26.3059 13.8917 22.9996C13.8917 19.6934 13.8917 19.4059 13.8917 18.1121C13.8917 16.9621 14.1792 16.3871 14.3229 15.9559C14.6104 15.3809 14.7542 14.9496 15.1854 14.5184C15.6167 14.0871 16.0479 13.7996 16.6229 13.6559C17.0542 13.5121 17.6292 13.3684 18.7792 13.2246C20.0729 13.2246 20.5042 13.2246 23.6667 13.2246ZM23.6667 11.0684C20.3604 11.0684 20.0729 11.0684 18.7792 11.0684C17.4854 11.0684 16.6229 11.3559 15.9042 11.6434C15.1854 11.9309 14.4667 12.3621 13.7479 13.0809C13.0292 13.7996 12.7417 14.3746 12.3104 15.2371C12.0229 15.9559 11.8792 16.8184 11.7354 18.1121C11.7354 19.4059 11.7354 19.8371 11.7354 22.9996C11.7354 26.3059 11.7354 26.5934 11.7354 27.8871C11.7354 29.1809 12.0229 30.0434 12.3104 30.7621C12.5979 31.4809 13.0292 32.1996 13.7479 32.9184C14.4667 33.6371 15.0417 33.9246 15.9042 34.3559C16.6229 34.6434 17.4854 34.7871 18.7792 34.9309C20.0729 34.9309 20.5042 34.9309 23.6667 34.9309C26.8292 34.9309 27.2604 34.9309 28.5542 34.9309C29.8479 34.9309 30.7104 34.6434 31.4292 34.3559C32.1479 34.0684 32.8667 33.6371 33.5854 32.9184C34.3042 32.1996 34.5917 31.6246 35.0229 30.7621C35.3104 30.0434 35.4542 29.1809 35.5979 27.8871C35.5979 26.5934 35.5979 26.1621 35.5979 22.9996C35.5979 19.8371 35.5979 19.4059 35.5979 18.1121C35.5979 16.8184 35.3104 15.9559 35.0229 15.2371C34.7354 14.5184 34.3042 13.7996 33.5854 13.0809C32.8667 12.3621 32.2917 12.0746 31.4292 11.6434C30.7104 11.3559 29.8479 11.2121 28.5542 11.0684C27.2604 11.0684 26.9729 11.0684 23.6667 11.0684Z" fill="#1C5E25"/>
<path d="M23.6667 16.8184C20.2167 16.8184 17.4854 19.5496 17.4854 22.9996C17.4854 26.4496 20.2167 29.1809 23.6667 29.1809C27.1167 29.1809 29.8479 26.4496 29.8479 22.9996C29.8479 19.5496 27.1167 16.8184 23.6667 16.8184ZM23.6667 27.0246C21.5104 27.0246 19.6417 25.2996 19.6417 22.9996C19.6417 20.8434 21.3667 18.9746 23.6667 18.9746C25.8229 18.9746 27.6917 20.6996 27.6917 22.9996C27.6917 25.1559 25.8229 27.0246 23.6667 27.0246Z" fill="#1C5E25"/>
<path d="M29.9917 18.1121C30.7856 18.1121 31.4292 17.4685 31.4292 16.6746C31.4292 15.8807 30.7856 15.2371 29.9917 15.2371C29.1978 15.2371 28.5542 15.8807 28.5542 16.6746C28.5542 17.4685 29.1978 18.1121 29.9917 18.1121Z" fill="#1C5E25"/>
</svg>
