<svg width="47" height="46" viewBox="0 0 47 46" fill="none" xmlns="http://www.w3.org/2000/svg">
<path d="M0.333313 23C0.333313 35.7025 10.6308 46 23.3333 46C36.0359 46 46.3333 35.7025 46.3333 23C46.3333 10.2975 36.0359 0 23.3333 0C10.6308 0 0.333313 10.2975 0.333313 23Z" fill="white"/>
<path d="M17.0083 34.5H12.1208V19.1188H17.0083V34.5ZM14.5646 16.9625C12.9833 16.9625 11.8333 15.8125 11.8333 14.2312C11.8333 12.65 13.1271 11.5 14.5646 11.5C16.1458 11.5 17.2958 12.65 17.2958 14.2312C17.2958 15.8125 16.1458 16.9625 14.5646 16.9625ZM34.8333 34.5H29.9458V26.1625C29.9458 23.7188 28.9396 23 27.5021 23C26.0646 23 24.6271 24.15 24.6271 26.3062V34.5H19.7396V19.1188H24.3396V21.275C24.7708 20.2688 26.4958 18.6875 28.9396 18.6875C31.6708 18.6875 34.5458 20.2687 34.5458 25.0125V34.5H34.8333Z" fill="#1C5E25"/>
</svg>
