<svg width="32" height="32" viewBox="0 0 32 32" fill="none" xmlns="http://www.w3.org/2000/svg">
<rect width="32" height="32" rx="16" fill="#1C5E25"/>
<path fill-rule="evenodd" clip-rule="evenodd" d="M8 16.0039C8 15.4516 8.44772 15.0039 9 15.0039L23.0015 15.0039C23.5538 15.0039 24.0015 15.4516 24.0015 16.0039C24.0015 16.5562 23.5538 17.0039 23.0015 17.0039L9 17.0039C8.44772 17.0039 8 16.5562 8 16.0039Z" fill="white"/>
<path fill-rule="evenodd" clip-rule="evenodd" d="M15.9961 8C16.5484 8 16.9961 8.44772 16.9961 9L16.9961 23.0009C16.9961 23.5532 16.5484 24.0009 15.9961 24.0009C15.4438 24.0009 14.9961 23.5532 14.9961 23.0009L14.9961 9C14.9961 8.44772 15.4438 8 15.9961 8Z" fill="white"/>
</svg>
