<svg width="40" height="40" viewBox="0 0 40 40" fill="none" xmlns="http://www.w3.org/2000/svg">
<path d="M4.57156 4.05934C2.28657 7.0776 1.41311 11.2001 1.06605 13.6183C0.327679 18.7803 -0.054317 23.9937 0.00624328 29.2048C0.0318649 31.3508 0.17162 33.6218 1.42242 35.402C3.31144 38.0945 7.06152 38.8151 10.4296 39.1832C17.7923 39.9862 25.2249 40.1982 32.6249 39.8145C34.8983 39.6962 37.4418 39.3929 38.8627 37.6863C40.167 36.1203 40.0692 33.9096 39.9085 31.9108C39.2866 24.2101 38.6647 16.5094 38.0428 8.8087C37.896 6.98168 37.719 5.06989 36.6802 3.53064C35.4596 1.71924 33.2096 0.733231 30.9758 0.469998C28.7421 0.206764 8.82708 -1.56225 4.57156 4.05934Z" fill="#1C5E25"/>
<path d="M25.9062 24.75V27H14.4688V25.0664L20.0234 19.0078C20.6328 18.3203 21.1133 17.7266 21.4648 17.2266C21.8164 16.7266 22.0625 16.2773 22.2031 15.8789C22.3516 15.4727 22.4258 15.0781 22.4258 14.6953C22.4258 14.1562 22.3242 13.6836 22.1211 13.2773C21.9258 12.8633 21.6367 12.5391 21.2539 12.3047C20.8711 12.0625 20.4062 11.9414 19.8594 11.9414C19.2266 11.9414 18.6953 12.0781 18.2656 12.3516C17.8359 12.625 17.5117 13.0039 17.293 13.4883C17.0742 13.9648 16.9648 14.5117 16.9648 15.1289H14.1406C14.1406 14.1367 14.3672 13.2305 14.8203 12.4102C15.2734 11.582 15.9297 10.9258 16.7891 10.4414C17.6484 9.94922 18.6836 9.70312 19.8945 9.70312C21.0352 9.70312 22.0039 9.89453 22.8008 10.2773C23.5977 10.6602 24.2031 11.2031 24.6172 11.9062C25.0391 12.6094 25.25 13.4414 25.25 14.4023C25.25 14.9336 25.1641 15.4609 24.9922 15.9844C24.8203 16.5078 24.5742 17.0312 24.2539 17.5547C23.9414 18.0703 23.5703 18.5898 23.1406 19.1133C22.7109 19.6289 22.2383 20.1523 21.7227 20.6836L18.0312 24.75H25.9062Z" fill="white"/>
</svg>
