<svg width="40" height="40" viewBox="0 0 40 40" fill="none" xmlns="http://www.w3.org/2000/svg">
<path d="M4.57156 4.05934C2.28657 7.0776 1.41311 11.2001 1.06605 13.6183C0.327679 18.7803 -0.054317 23.9937 0.00624328 29.2048C0.0318649 31.3508 0.17162 33.6218 1.42242 35.402C3.31144 38.0945 7.06152 38.8151 10.4296 39.1832C17.7923 39.9862 25.2249 40.1982 32.6249 39.8145C34.8983 39.6962 37.4418 39.3929 38.8627 37.6863C40.167 36.1203 40.0692 33.9096 39.9085 31.9108C39.2866 24.2101 38.6647 16.5094 38.0428 8.8087C37.896 6.98168 37.719 5.06989 36.6802 3.53064C35.4596 1.71924 33.2096 0.733231 30.9758 0.469998C28.7421 0.206764 8.82708 -1.56225 4.57156 4.05934Z" fill="#FFC61A"/>
<path d="M17.7852 17.1914H19.4727C20.1289 17.1914 20.6719 17.0781 21.1016 16.8516C21.5391 16.625 21.8633 16.3125 22.0742 15.9141C22.2852 15.5156 22.3906 15.0586 22.3906 14.543C22.3906 14.0039 22.293 13.543 22.0977 13.1602C21.9102 12.7695 21.6211 12.4688 21.2305 12.2578C20.8477 12.0469 20.3594 11.9414 19.7656 11.9414C19.2656 11.9414 18.8125 12.043 18.4062 12.2461C18.0078 12.4414 17.6914 12.7227 17.457 13.0898C17.2227 13.4492 17.1055 13.8789 17.1055 14.3789H14.2695C14.2695 13.4727 14.5078 12.668 14.9844 11.9648C15.4609 11.2617 16.1094 10.7109 16.9297 10.3125C17.7578 9.90625 18.6875 9.70312 19.7188 9.70312C20.8203 9.70312 21.7812 9.88672 22.6016 10.2539C23.4297 10.6133 24.0742 11.1523 24.5352 11.8711C24.9961 12.5898 25.2266 13.4805 25.2266 14.543C25.2266 15.0273 25.1133 15.5195 24.8867 16.0195C24.6602 16.5195 24.3242 16.9766 23.8789 17.3906C23.4336 17.7969 22.8789 18.1289 22.2148 18.3867C21.5508 18.6367 20.7812 18.7617 19.9062 18.7617H17.7852V17.1914ZM17.7852 19.3945V17.8477H19.9062C20.9062 17.8477 21.7578 17.9648 22.4609 18.1992C23.1719 18.4336 23.75 18.7578 24.1953 19.1719C24.6406 19.5781 24.9648 20.043 25.168 20.5664C25.3789 21.0898 25.4844 21.6445 25.4844 22.2305C25.4844 23.0273 25.3398 23.7383 25.0508 24.3633C24.7695 24.9805 24.3672 25.5039 23.8438 25.9336C23.3203 26.3633 22.707 26.6875 22.0039 26.9062C21.3086 27.125 20.5508 27.2344 19.7305 27.2344C18.9961 27.2344 18.293 27.1328 17.6211 26.9297C16.9492 26.7266 16.3477 26.4258 15.8164 26.0273C15.2852 25.6211 14.8633 25.1172 14.5508 24.5156C14.2461 23.9062 14.0938 23.2031 14.0938 22.4062H16.918C16.918 22.9141 17.0352 23.3633 17.2695 23.7539C17.5117 24.1367 17.8477 24.4375 18.2773 24.6562C18.7148 24.875 19.2148 24.9844 19.7773 24.9844C20.3711 24.9844 20.8828 24.8789 21.3125 24.668C21.7422 24.457 22.0703 24.1445 22.2969 23.7305C22.5312 23.3164 22.6484 22.8164 22.6484 22.2305C22.6484 21.5664 22.5195 21.0273 22.2617 20.6133C22.0039 20.1992 21.6367 19.8945 21.1602 19.6992C20.6836 19.4961 20.1211 19.3945 19.4727 19.3945H17.7852Z" fill="white"/>
</svg>
