<svg width="40" height="40" viewBox="0 0 40 40" fill="none" xmlns="http://www.w3.org/2000/svg">
<path d="M4.57156 4.05934C2.28657 7.0776 1.41311 11.2001 1.06605 13.6183C0.327679 18.7803 -0.054317 23.9937 0.00624328 29.2048C0.0318649 31.3508 0.17162 33.6218 1.42242 35.402C3.31144 38.0945 7.06152 38.8151 10.4296 39.1832C17.7923 39.9862 25.2249 40.1982 32.6249 39.8145C34.8983 39.6962 37.4418 39.3929 38.8627 37.6863C40.167 36.1203 40.0692 33.9096 39.9085 31.9108C39.2866 24.2101 38.6647 16.5094 38.0428 8.8087C37.896 6.98168 37.719 5.06989 36.6802 3.53064C35.4596 1.71924 33.2096 0.733231 30.9758 0.469998C28.7421 0.206764 8.82708 -1.56225 4.57156 4.05934Z" fill="#1C5E25"/>
<path d="M22.1797 9.87891V27H19.3555V13.2305L15.1719 14.6484V12.3164L21.8398 9.87891H22.1797Z" fill="white"/>
</svg>
