<svg width="40" height="41" viewBox="0 0 40 41" fill="none" xmlns="http://www.w3.org/2000/svg">
<path d="M4.57156 4.55934C2.28657 7.5776 1.41311 11.7001 1.06605 14.1183C0.327679 19.2803 -0.054317 24.4937 0.00624328 29.7048C0.0318649 31.8508 0.17162 34.1218 1.42242 35.902C3.31144 38.5945 7.06152 39.3151 10.4296 39.6832C17.7923 40.4862 25.2249 40.6982 32.6249 40.3145C34.8983 40.1962 37.4418 39.8929 38.8627 38.1863C40.167 36.6203 40.0692 34.4096 39.9085 32.4108C39.2866 24.7101 38.6647 17.0094 38.0428 9.3087C37.896 7.48168 37.719 5.56989 36.6802 4.03064C35.4596 2.21924 33.2096 1.23323 30.9758 0.969998C28.7421 0.706764 8.82708 -1.06225 4.57156 4.55934Z" fill="#FFC61A"/>
<path d="M26.2227 21.418V23.668H13.918L13.8242 21.9688L21.1836 10.4375H23.4453L20.9961 14.6328L16.7656 21.418H26.2227ZM24.0898 10.4375V27.5H21.2656V10.4375H24.0898Z" fill="white"/>
</svg>
