<svg width="28" height="29" viewBox="0 0 28 29" fill="none" xmlns="http://www.w3.org/2000/svg">
<g clip-path="url(#clip0_886_9820)">
<path fill-rule="evenodd" clip-rule="evenodd" d="M0.746334 9.95762C0.989306 8.23645 1.60081 5.30222 3.20052 3.15393C6.17978 -0.847304 20.1222 0.411815 21.686 0.599175C23.2498 0.786534 24.8251 1.48834 25.6795 2.77763C26.4068 3.8732 26.5308 5.23394 26.6335 6.53434L27.9397 22.9775C28.0522 24.4002 28.1207 25.9737 27.2075 27.0883C26.2128 28.303 24.4321 28.5189 22.8405 28.6031C21.9117 28.652 20.9822 28.6874 20.0524 28.7091C21.5925 26.412 22.3508 23.9663 22.6596 21.359C22.9371 19.0152 22.8504 16.5558 22.6703 13.9962C22.6094 13.1297 22.5381 12.2552 22.4658 11.3679L22.4657 11.3678L22.4657 11.3677C22.3225 9.61023 22.1751 7.80278 22.096 5.90934C22.086 5.67141 21.9614 5.45299 21.7614 5.3232C21.5615 5.19341 21.311 5.16829 21.0892 5.2558C18.6412 6.22161 16.2788 8.22301 14.3271 10.3377C13.3446 11.4023 12.451 12.5123 11.6873 13.5639C11.7222 12.9756 11.7382 12.3705 11.7366 11.7642C11.7315 9.84384 11.5491 7.85202 11.196 6.25794C11.1505 6.05265 11.0193 5.8766 10.8354 5.77423C10.6515 5.67187 10.4325 5.65297 10.2337 5.7223C6.54121 7.01045 3.03909 9.75385 0.292016 13.8918C0.410055 12.5769 0.5624 11.265 0.746334 9.95762ZM0.0705432 17.1711C0.0124924 18.4637 -0.0104187 19.7577 0.00437088 21.0515C0.0223084 22.579 0.12015 24.1954 0.995829 25.4624C2.31832 27.3789 4.94372 27.8917 7.3017 28.1537C10.9244 28.5554 14.5712 28.7493 18.2172 28.7343C20.0487 26.3836 20.8771 23.8827 21.1964 21.1862C21.457 18.9853 21.3793 16.6393 21.2006 14.0993C21.1419 13.2655 21.072 12.4073 21.0004 11.528C20.8833 10.0908 20.7616 8.59716 20.6769 7.06115C18.8464 8.0123 17.0236 9.5871 15.4106 11.3349C13.5266 13.3763 11.9884 15.5881 11.1204 17.1454C10.9392 17.4705 10.5434 17.6093 10.1984 17.4687C9.85343 17.3282 9.66783 16.9526 9.76604 16.5936C10.1001 15.3727 10.2681 13.619 10.2632 11.768C10.2592 10.2601 10.1406 8.72695 9.92013 7.4169C6.20492 8.96152 2.6472 12.2 0.0705432 17.1711Z" fill="white"/>
</g>
<defs>
<clipPath id="clip0_886_9820">
<rect width="28.0037" height="28.4705" fill="white" transform="translate(0 0.264648)"/>
</clipPath>
</defs>
</svg>
